<svg width="32" height="32" viewBox="0 0 32 32" fill="none" xmlns="http://www.w3.org/2000/svg">
<path d="M18.6477 16.001L26.6455 7.99891C26.9971 7.64767 27.1947 7.17119 27.1949 6.67428C27.1951 6.17738 26.9978 5.70076 26.6464 5.34927C26.295 4.99779 25.8184 4.80022 25.3213 4.80005C24.8242 4.79987 24.3474 4.9971 23.9957 5.34834L15.998 13.3467L7.9984 5.35207C7.64727 5.00108 7.17103 4.80389 6.67446 4.80389C6.17789 4.80389 5.70165 5.00108 5.35052 5.35207C4.99939 5.70306 4.80213 6.17911 4.80213 6.67549C4.80213 7.17187 4.99939 7.64792 5.35052 7.99891L13.3483 15.9973L5.35052 23.9956C4.99816 24.3466 4.79971 24.8231 4.79883 25.3204C4.79796 25.8176 4.99473 26.2949 5.34586 26.6471C5.69699 26.9993 6.17371 27.1977 6.67116 27.1986C7.16861 27.1994 7.64603 27.0028 7.9984 26.6518L15.9961 18.6534L23.9957 26.6518C24.1698 26.8257 24.3765 26.9636 24.6039 27.0577C24.8314 27.1518 25.0751 27.2001 25.3213 27.2001C25.5674 27.2 25.8111 27.1514 26.0385 27.0572C26.2658 26.9629 26.4724 26.8249 26.6464 26.6508C26.8204 26.4768 26.9584 26.2702 27.0525 26.0429C27.1466 25.8155 27.195 25.5719 27.1949 25.3258C27.1948 25.0798 27.1463 24.8362 27.052 24.6089C26.9577 24.3816 26.8196 24.1751 26.6455 24.0012L18.6477 16.001Z" fill="#FAFAFA"/>
</svg>
