<svg width="32" height="32" viewBox="0 0 32 32" fill="none" xmlns="http://www.w3.org/2000/svg">
<path d="M24.8002 19.2H23.2002C22.988 19.2 22.7845 19.2842 22.6345 19.4343C22.4845 19.5843 22.4002 19.7878 22.4002 20V25.5999H6.4002V9.59995H13.6002C13.8124 9.59995 14.0159 9.51567 14.1659 9.36564C14.3159 9.21561 14.4002 9.01212 14.4002 8.79995V7.19995C14.4002 6.98778 14.3159 6.78429 14.1659 6.63427C14.0159 6.48424 13.8124 6.39995 13.6002 6.39995H5.6002C4.96368 6.39995 4.35323 6.65281 3.90314 7.10289C3.45305 7.55298 3.2002 8.16343 3.2002 8.79995L3.2002 26.4C3.2002 27.0365 3.45305 27.6469 3.90314 28.097C4.35323 28.5471 4.96368 28.7999 5.6002 28.7999H23.2002C23.8367 28.7999 24.4472 28.5471 24.8973 28.097C25.3473 27.6469 25.6002 27.0365 25.6002 26.4V20C25.6002 19.7878 25.5159 19.5843 25.3659 19.4343C25.2159 19.2842 25.0124 19.2 24.8002 19.2ZM27.6002 3.19995H21.2002C20.1317 3.19995 19.5977 4.49545 20.3502 5.24995L22.1367 7.03645L9.95019 19.2185C9.83832 19.3299 9.74956 19.4624 9.68899 19.6083C9.62843 19.7541 9.59725 19.9105 9.59725 20.0684C9.59725 20.2264 9.62843 20.3828 9.68899 20.5286C9.74956 20.6745 9.83832 20.807 9.95019 20.9184L11.0837 22.0499C11.1952 22.1618 11.3277 22.2506 11.4735 22.3112C11.6194 22.3717 11.7758 22.4029 11.9337 22.4029C12.0916 22.4029 12.248 22.3717 12.3939 22.3112C12.5397 22.2506 12.6722 22.1618 12.7837 22.0499L24.9642 9.86595L26.7502 11.65C27.5002 12.4 28.8002 11.875 28.8002 10.8V4.39995C28.8002 4.08169 28.6738 3.77647 28.4487 3.55142C28.2237 3.32638 27.9185 3.19995 27.6002 3.19995V3.19995Z" fill="#FAFAFA"/>
</svg>
