<svg width="40" height="40" viewBox="0 0 40 40" fill="none" xmlns="http://www.w3.org/2000/svg">
<path d="M24 16C24 17.1 23.1 18 22 18H4C2.9 18 2 17.1 2 16C2 14.9 2.9 14 4 14H22C23.1 14 24 14.9 24 16ZM2 8C2 9.1 2.9 10 4 10H22C23.1 10 24 9.1 24 8C24 6.9 23.1 6 22 6H4C2.9 6 2 6.9 2 8ZM16 24C16 22.9 15.1 22 14 22H4C2.9 22 2 22.9 2 24C2 25.1 2.9 26 4 26H14C15.1 26 16 25.1 16 24ZM32.02 19.74L33.44 18.32C33.625 18.1346 33.8448 17.9875 34.0868 17.8871C34.3287 17.7868 34.5881 17.7351 34.85 17.7351C35.1119 17.7351 35.3713 17.7868 35.6132 17.8871C35.8552 17.9875 36.075 18.1346 36.26 18.32L37.68 19.74C38.46 20.52 38.46 21.78 37.68 22.56L36.26 23.98L32.02 19.74ZM30.6 21.16L20.28 31.48C20.1 31.66 20 31.9 20 32.18V35C20 35.56 20.44 36 21 36H23.82C24.08 36 24.34 35.9 24.52 35.7L34.84 25.38L30.6 21.16Z" fill="#FAFAFA"/>
</svg>
