<svg width="40" height="40" viewBox="0 0 40 40" fill="none" xmlns="http://www.w3.org/2000/svg">
<path d="M35.5694 31.6743L29.336 25.4443C29.1964 25.305 29.0307 25.1946 28.8484 25.1194C28.666 25.0443 28.4706 25.0058 28.2734 25.0063H27.2548C29.2943 22.3987 30.2618 19.1118 29.9602 15.8159C29.6586 12.5199 28.1105 9.46304 25.6315 7.26853C23.1526 5.07402 19.9295 3.90713 16.6194 4.00578C13.3094 4.10444 10.1616 5.46121 7.81788 7.79946C5.47419 10.1377 4.11108 13.2814 4.0065 16.5894C3.90191 19.8975 5.06371 23.1209 7.25502 25.6024C9.44633 28.0838 12.5021 29.6365 15.7994 29.9438C19.0966 30.2512 22.387 29.29 24.9996 27.2563V28.2743C24.9991 28.4714 25.0376 28.6667 25.1128 28.8489C25.188 29.0312 25.2985 29.1968 25.4378 29.3363L31.6733 35.5683C31.8122 35.7078 31.9773 35.8185 32.1591 35.894C32.3409 35.9696 32.5359 36.0084 32.7328 36.0084C32.9298 36.0084 33.1247 35.9696 33.3066 35.894C33.4884 35.8185 33.6535 35.7078 33.7924 35.5683L35.5614 33.8003C35.8423 33.5177 36 33.1356 36 32.7373C36 32.3389 35.8423 31.9568 35.5614 31.6743H35.5694ZM16.9952 25.0043C15.4121 25.0043 13.8645 24.5351 12.5482 23.656C11.2319 22.777 10.2059 21.5275 9.6001 20.0657C8.99427 18.6039 8.83575 16.9954 9.14461 15.4435C9.45346 13.8917 10.2158 12.4662 11.3352 11.3474C12.4547 10.2286 13.8809 9.46667 15.4336 9.15799C16.9863 8.8493 18.5957 9.00773 20.0583 9.61323C21.521 10.2187 22.7711 11.2441 23.6506 12.5597C24.5301 13.8753 24.9996 15.422 24.9996 17.0043C24.9996 19.126 24.1563 21.1608 22.6552 22.6611C21.154 24.1614 19.1181 25.0043 16.9952 25.0043Z" fill="#FAFAFA"/>
</svg>
