<svg width="32" height="32" viewBox="0 0 32 32" fill="none" xmlns="http://www.w3.org/2000/svg">
<path d="M7.71132 24.5333C7.71132 26 8.89115 27.2 10.3332 27.2H20.8206C22.2626 27.2 23.4424 26 23.4424 24.5333V11.2C23.4424 9.73328 22.2626 8.53328 20.8206 8.53328H10.3332C8.89115 8.53328 7.71132 9.73328 7.71132 11.2V24.5333ZM23.4424 4.53328H20.1651L19.2343 3.58662C18.9984 3.34662 18.6575 3.19995 18.3167 3.19995H12.837C12.4962 3.19995 12.1553 3.34662 11.9194 3.58662L10.9886 4.53328H7.71132C6.99031 4.53328 6.40039 5.13328 6.40039 5.86662C6.40039 6.59995 6.99031 7.19995 7.71132 7.19995H23.4424C24.1634 7.19995 24.7533 6.59995 24.7533 5.86662C24.7533 5.13328 24.1634 4.53328 23.4424 4.53328Z" fill="#FAFAFA"/>
</svg>
